<?xml version="1.0" encoding="UTF-8"?> <svg xmlns="http://www.w3.org/2000/svg" viewBox="0 0 1225 257.97"> <defs> <style>.cls-1{fill:#fff;fill-rule:evenodd;}</style> </defs> <g id="Слой_2" data-name="Слой 2"> <g id="Слой_1-2" data-name="Слой 1"> <path class="cls-1" d="M761,27c-13.88,3-26.36,6.51-37,13-6,3.65-11.88,9.74-19,12,2.43,5.3,13.09,9.37,20,10v2c-71.69-.34-72.79-65.58-153-64-1.28.88-2.47.93-5,1,4.45,3.49,11.48,3.6,17,6,8,3.48,16.12,9.83,23,15,24.06,18.09,51.31,74.89,100,59,20.43-6.67,27.76-25.58,43-37,4.61-3.45,10.7-7.77,16-10,4.41-1.85,9.42-1.45,13-4h2V29C774.58,28.62,768.52,25.38,761,27Z"></path> <path class="cls-1" d="M282,67l-12-1c-3.2,3.21-6.42,3.92-8,9-2.19,3.1-.88,9.81,1,12,2.19,3.31,5.23,4.37,8,7,9.08,0,10.95-2.63,16-6,1-4,2-6.46,2-12A59.88,59.88,0,0,1,282,67Z"></path> <path class="cls-1" d="M338,67c-1.82-1.24-5.72-1.12-9-1a140.8,140.8,0,0,0-10,10c.05,9.08,2.63,11,6,16,4,1,6.46,2,12,2,3.47-3.37,6.63-6.53,10-10C347.28,74.58,345,69.07,338,67Z"></path> <path class="cls-1" d="M219,221c-10-26.46-17.44-53.34-27-79-5.59-15-9.69-29.77-15-44-2-5.28-2-10.89-5-15l-1-1c-12.48,26.66-26.32,53.52-38,80-5.16,11.69-8.86,27.8-17,37-.65,1.73-.2,1-1,2-2.34-8.47-7.77-15.65-11-23-9-20.58-19.26-40.18-28-60-4.16-9.45-10.11-30-17-36L0,253v2c8.21.18,17.81.89,22-3,10.06-3.47,10.57-16.64,14-27,5.53-16.7,11.87-35.46,18-52,3.07-8.28,3.2-18.4,8-25,.65-1.73.2-1,1-2,4,14.27,16.47,33.61,24,46,6.22,10.23,8.76,21.78,15,32,4.1,6.71,10,14.52,12,23,7.48-2.07,9.24-15.84,13-22,10-16.36,19.12-34.92,28-52,4.38-8.42,6.94-18.25,13-25,.65-1.73.2-1,1-2,3.79,15.38,10.22,30.61,15,45,7.48,22.49,11.78,42.93,23,61a18.33,18.33,0,0,1,7,3h17C228.18,243.24,223,231.63,219,221Z"></path> <path class="cls-1" d="M374,166q-3.5-10.5-7-21c-11.79-22.89-34.56-35.53-70-35-5.07,3.07-17.11,2.61-23,5-16.56,6.73-29.13,20.61-36,37-2.52,6-3.57,13.76-5,20-2.09,9.14.35,22.58,2,29,8.91,34.74,20.56,46.61,56,55,5.68,1.35,18.75,2.62,26,1,38.74-8.67,48.15-24.39,57-63C375.66,186.78,376,173.59,374,166Zm-57,68c-42.49,12.94-69-33.35-57-70a47.93,47.93,0,0,1,24-28c3.1-1.5,7.35-1.22,10-3,28.57-.52,43.82,6.75,52,26C359.94,191.84,342.22,226.35,317,234Z"></path> <path class="cls-1" d="M1011,138c19.54-11.62,50-1.08,59,13,5.56-1.95,13.62-10.49,17-15l1-1-10-10c-12.41-9.23-28.07-15.39-50-15-5.25,3.2-17.92,2.46-24,5-17.53,7.32-29.87,22.26-37,40-11.63,28.91,1,73.14,18,86,8,6.08,15.15,9.28,26,13,7.31,2.51,22.89,5.49,34,3,21.89-4.9,27.08-11.93,42-22-2-5.83-8.69-13-13-17-1-.81-.25-.37-2-1-11.24,12.24-41.4,24.61-62,12-12.8-7.83-18.07-22.09-22-39-1.55-6.66.79-14.61,2-19C994.2,155.83,999.06,145.13,1011,138Z"></path> <path class="cls-1" d="M759,112c-7.86-.08-18.84-1.08-25,1v84l-39-37-8-9c-11.32-8.55-20-19.2-30-29-4-3.91-8.82-6.21-12-11h-2V255h25V170l19,19c12.54,11.93,24.73,23.84,37,36,10.57,10.47,24.7,19.47,33,32h2l1-1V157C760,143.46,762.8,123.57,759,112Z"></path> <path class="cls-1" d="M480,112c-2.17,1.18-7.43,19.32-9,23-6.65,15.6-14.28,32.51-21,48-3,6.94-3.78,14.39-8,20-.65,1.73-.2,1-1,2l-38-93H376c1.4,14.06,16.44,37.35,22,50,14.13,32.12,28.17,63.31,42,95,7.1-1.95,13.34-25.64,17-33,11.91-24,21.86-48.86,33-74,5-11.32,15.35-24.65,17-38Z"></path> <path class="cls-1" d="M618,135c.08-7.31.91-17.36-1-23H553c-9.61,0-23.18-1.59-31,1V255h96V233H547V196h56V174H547V135Z"></path> <path class="cls-1" d="M887,133c-16-24.64-56.88-21.61-98-21V255h25V204h40C880.18,197.64,907.93,165.29,887,133Zm-20,30c-6.19,22.4-25.38,18.69-53,18V135c25.73-.64,48.36-2.85,54,17C869,155.47,867.53,161.11,867,163Z"></path> <path class="cls-1" d="M940,112c-7.86-.08-18.84-1.08-25,1V255h26V157C941,143.46,943.8,123.57,940,112Z"></path> <path class="cls-1" d="M1204,233c-6.36-7.15-12.27-14.27-19-21l-11-10c-5.11-6.77-10.91-14.33-18-19,1.85-8.76,13.36-15.35,19-21,10.62-10.64,21.91-22,31-34l15-15-1-1h-29c-3.84,1.71-12.13,13.21-15,17-11.46,15.13-29.5,25.84-40,42h-1V112h-25V255h25V193c6.71,3.18,12.59,12.18,17,18l10,9a248,248,0,0,1,22,25l10,10h31C1221.74,246,1210.07,239.85,1204,233Z"></path> </g> </g> </svg> 