<?xml version="1.0" encoding="UTF-8"?> <svg xmlns="http://www.w3.org/2000/svg" viewBox="0 0 1198.76 632.9"> <defs> <style>.cls-1,.cls-2{fill:#fff;}.cls-1{fill-rule:evenodd;}</style> </defs> <g id="Слой_2" data-name="Слой 2"> <g id="Слой_1-2" data-name="Слой 1"> <path class="cls-1" d="M747,258.3c-4.38-1.85-15,3.48-20,5-12.67,3.82-29.87,3.8-41-1-37.22-16.07-39-51.26-61-81a91.41,91.41,0,0,0-23-21c-6.44-4-15.59-5-21-10h-2c5.22-3.88,14.68-3.43,21-6,13.28-5.4,27.23-14,35-25,5-7,8.52-15.68,11-25,3.88-14.57,1.18-31.5-3-43C623.27-3,552.36-.56,478,.3c-6.88,4.32-20.69-.28-27,4-2.43,1.32-.71-.47-2,2-.81,1-.37.25-1,2a10.92,10.92,0,0,1,2,3c3.79.94,11,3.75,15,1a21.58,21.58,0,0,1,7,1c1.86,8.13,3.08,19.22,5,28v33c2.71,12.57,1,30.65,1,45q.5,35,1,70c0,29.87,2.64,58.72-9,77-6.41,1.26-14.78,1.77-20,4a19.17,19.17,0,0,1-2,4c.74,2.32,1,2.23,2,4,3.3-.09,7.16-.24,9,1h67c9.74,0,23.44,1.37,30-2a25.25,25.25,0,0,0-1-8c-12.51-2.34-26.43-2.81-33-11-4.73-5.89-2-12.63-4-22-2.44-11.23-3-53.25-1-63,1.84-8.8-.27-15.31,3-21,4.39-1.16,10-2.89,15-4,45-10,55.12,56,70,80,16.06,26,41.73,61.67,90,51l21-2c11-3.17,21.36-9.44,31-14,.65-1.73.2-1,1-2C747.6,259.25,747.75,259.37,747,258.3Zm-203-118c-6.66,0-15.21.93-19-2-8-3.06-6-18.15-6-29v-63c0-10-1.11-23.08,2-30,2.56-1,8.49-1.42,11-3,35-.55,56.09,4.94,69,26,16.75,27.32,7.14,73.33-13,88C575.83,136.16,565.73,140.3,544,140.3Z"></path> <path class="cls-1" d="M996,363.3c21.14-.53,30.18,5.34,43,12a33.75,33.75,0,0,1-7,10c-7.91-10.1-34.71-13.42-47-5-12.48,8.54-15.44,55.71-9,75,3.39,10.14,18.13,23.57,34,20,5.92-1.34,23-9,23-9a21.29,21.29,0,0,1,6,9c-5.22,1.76-9.15,6-14,8-11.72,4.9-32,5.36-44,0-24.37-10.85-33-74.59-16-102,4.21-6.82,12.76-13.31,21-16C989.47,364.16,993.35,365,996,363.3Z"></path> <path class="cls-1" d="M545,364.3c27.45-.59,31.3,5.46,44,19-.63,1.75-.19,1-1,2-2.11,1.95-5.82,3.2-9,4-4.51-15-26.28-13.72-41-10-4.64,6.89-8.08,9.37-8,22,3,3.38,4.07,7.54,8,10,5.38,3.36,11.06,3,18,5,17.58,5,30.53,10.83,35,29,11.57,47-63.33,52-77,19,4.72-1.18,7.32-3.69,12-5,5.23,15.82,27.08,14.14,42,10,6.9-10,9.8-12.23,6-28-4.42-2.92-7.61-8-13-10l-18-3c-15.56-5.09-31.95-15.73-27-38,1-4.55,1.66-8.71,4-12C527.21,368.13,535.56,370.36,545,364.3Z"></path> <path class="cls-1" d="M644,364.3c18.56-.73,31.54,2.63,39,13,1.72,2.38,5.59,5.1,4,8-2.06,2.06-7,3.93-9,3-2.39-2.49-4-6.15-7-8-10-6.18-35.09-6.3-39,5-5.92,6.87-2.72,20.82,3,25,6.58,4.8,14.84,4.4,24,7,16.18,4.58,27.1,12,31,29,5.81,25.31-22.65,45.61-49,39-13.92-3.5-19.67-10.28-28-19v-2c3.84-1.76,7.54-3.82,12-5,5.23,15.82,27.08,14.14,42,10,6.78-9.85,9.69-12.66,6-28-3.88-2.56-6.46-7.05-11-9-6.24-2.69-13.14-1.76-20-4-15.69-5.13-35.42-18.84-26-42,1.8-4.43,2.92-8.9,6-12C627.79,368.46,636.72,369,644,364.3Z"></path> <path class="cls-1" d="M1189,381.3c-.23-2.32-.2-2.82-1-4-.33-1-.67-2-1-3a50.14,50.14,0,0,0-11-1v20h3v-8c4.41,1.06,5.45,4.33,7,8h3c-1.13-2.39-2.26-5.18-4-7A14.25,14.25,0,0,1,1189,381.3Zm-11,1v-6h7c.65,1.73.2,1,1,2a14.17,14.17,0,0,1-1,4c-1.73.65-1,.2-2,1A15.61,15.61,0,0,1,1178,382.3Z"></path> <path class="cls-1" d="M1179,364.3c-1.17.81-1.67.8-4,1-2.65,2.44-7,4-9,7-6.93,10.26-1,25.48,9,28,3.7,2.74,8,1.5,13,1a59.88,59.88,0,0,1,9-7C1201.45,378.91,1198.18,364.39,1179,364.3Zm7,35c-10.85.07-12.12-3-18-7-.51-2.13-.89-3.62-2-5,0-11.76,4.35-13.41,10-19h11l7,5c1.49,2.12,1.34,4.24,3,6v9C1193.27,392.16,1189.86,395.57,1186,399.3Z"></path> <ellipse class="cls-2" cx="479" cy="424.8" rx="11.31" ry="84.15"></ellipse> <path class="cls-1" d="M79,468.3c-7.45-11-6.79-29.86-17-38,2.09-3.44,5.6-2.88,9-5,4.83-3,10.68-9.58,13-15,2.83-6.61,2.36-17.74,0-24-10.17-27-47.9-20.59-84-20v118H16v-53c9.5-.13,25.92-2.09,32,2,10.48,7.06,10.19,28.11,17,39,4.84,7.74,12.75,10.8,19,17,5.13-1.35,4.37-5.43,7-9C89.26,474.22,82.16,473,79,468.3Zm-63-47v-45c12.12-.06,35.06-1.91,44,2l8,7C77,421.9,48.07,420.86,16,421.3Z"></path> <path class="cls-1" d="M120,366.3h77v11l-60-2c-3.56,10.64-1.08,29.36-1,42l48-1v12l-48-1v47l62-1v11H120Z"></path> <path class="cls-1" d="M229,366.3h17c12.87,22.53,28,43.83,42,66,6.28,9.94,14.94,19.78,19,32h1v-98h15v118H306c-11.68-20.46-25.28-39.86-38-60-7.51-11.9-18.2-23.56-23-38h-1v10c2.85,4.54,1,17.42,1,24,0,21.55-.76,43.87-1,64H229Z"></path> <path class="cls-1" d="M406,366.3H390c-2.61,1.48-10.08,28.95-12,34-7,18.46-14.48,38.75-22,57-3.45,8.38-4,18.22-9,25v2c2.73,0,4.58,0,6,1h10q7-18.49,14-37h43c2.08,12.49,9.19,25,14,36h16Q428,425.31,406,366.3Zm-25,70c3-12.41,7.75-25.5,12-37,1.95-5.26,2-10.94,5-15v-2c3.7,4.53,3.78,12,6,18,4,10.85,10.69,23.59,12,36Z"></path> <path class="cls-1" d="M799,457.3c-7.2-17.45-10.76-34.51-18-52-5-12-12-25.74-15-39H750c-2.81,1.53-9,26.05-11,31-7.51,18.28-14.48,38.73-22,57-3.8,9.23-4.46,20.36-10,28v2c2.73,0,4.58,0,6,1h10c1.64-1.19,1.12-5.91,2-8,3.59-8.5,9.92-18.89,11-29h43l3,9c3.58,8.36,9,17.36,11,27h16C807.52,474.52,802.4,465.55,799,457.3Zm-23-21H741c2.9-18.68,13.92-34.81,16-53,4.72,2.71,4.12,10.32,6,16,2.66,8,8.61,29.95,13,36Z"></path> <path class="cls-1" d="M832,366.3h18c2.64,8.52,10.35,16,15,23,9.7,14.54,17.64,29.18,27,44,6.08,9.63,14.55,18.69,18,31h2c-3.44-30.29-1-65.95-1-98h15v118H909c-18.82-33.65-43.8-62.52-61-98h-1v8c3,4.73,1,18.2,1,25v65H832Z"></path> <path class="cls-1" d="M1068,366.3h76v11l-60-2v42l47-1v13l-47-2v47l62-1v11h-78Z"></path> <path class="cls-1" d="M1189,381.3c-.23-2.32-.2-2.82-1-4-.33-1-.67-2-1-3a50.14,50.14,0,0,0-11-1v20h3v-8c4.41,1.06,5.45,4.33,7,8h3c-1.13-2.39-2.26-5.18-4-7A14.25,14.25,0,0,1,1189,381.3Zm-11,1v-6h7c.65,1.73.2,1,1,2a14.17,14.17,0,0,1-1,4c-1.73.65-1,.2-2,1A15.61,15.61,0,0,1,1178,382.3Z"></path> <path class="cls-1" d="M1189,381.3c-.23-2.32-.2-2.82-1-4-.33-1-.67-2-1-3a50.14,50.14,0,0,0-11-1v20h3v-8c4.41,1.06,5.45,4.33,7,8h3c-1.13-2.39-2.26-5.18-4-7A14.25,14.25,0,0,1,1189,381.3Zm-11,1v-6h7c.65,1.73.2,1,1,2a14.17,14.17,0,0,1-1,4c-1.73.65-1,.2-2,1A15.61,15.61,0,0,1,1178,382.3Z"></path> <path class="cls-1" d="M521,586.3c-1.73-8.82,0-15.07-3-22-5.22-12-17.89-16.47-36-16-2.13,1.36-5.3.89-8,2-7,2.88-13.34,9.82-16,17-2.36,6.35-2,13.79-2,22,0,28,11.37,49.8,42,42C514.87,627,525.22,607.77,521,586.3Zm-10,6c-2.86,14,.44,25.22-12,29-3.8,3.09-18.21,3.15-22,0-13.34-4.58-16.82-39.67-9-55l8-8c2.78-.32,5.25-.72,7-2C506,555.68,515.44,570.59,511,592.3Z"></path> <path class="cls-1" d="M375,549.3h9v34c9.58,3.21,26.49,1.08,38,1v-35h10v81h-9c-3.21-9.58-1.08-26.5-1-38H384v38h-9Z"></path> <path class="cls-1" d="M538,549.3h56v8a191.54,191.54,0,0,1-23-1v74h-9c-1.89-5.71-1-15.64-1-23v-51a217.55,217.55,0,0,1-23,1Z"></path> <path class="cls-1" d="M619,549.3h46v8l-36-1v29l28-1v8l-28-1v32l37-1v8H619Z"></path> <path class="cls-1" d="M694,549.3h9v74l38-1v8H694Z"></path> <path class="cls-1" d="M778,549.3c10.56-.32,25-.78,31,4-1.76,2.62-1.07,5.33-4,7-7-4.72-22.46-2.83-30-1-3.48,5.18-5.15,7.19-5,17,3.16,2,5.44,5.48,9,7,9.68,4.13,24.49,2.88,28,13,5.94,6.21,1.89,19.34,0,26-15.69,10.64-31.66,11.19-51,3l2-6a13.83,13.83,0,0,1,4-1c7.86,6.73,33.21,7.76,37-3,3.49-4.25,1.23-10.28,0-15l-6-5c-10.83-5-27-3.32-31-15-3-3.61-2.85-15.3,0-19,1.1-3.94,3.15-6.72,7-8C771.3,551.27,775.44,551.15,778,549.3Z"></path> </g> </g> </svg> 