<?xml version="1.0" encoding="UTF-8"?> <svg xmlns="http://www.w3.org/2000/svg" viewBox="0 0 283.17 435.04"> <defs> <style>.cls-1{fill:#fff;fill-rule:evenodd;}</style> </defs> <g id="Слой_2" data-name="Слой 2"> <g id="Слой_1-2" data-name="Слой 1"> <path class="cls-1" d="M249.17,282c-4.8-21.34-2.46-43.83-7-64q-1-13.5-2-27c-5.81-25.87-4.15-56.1-10-82-5.32-23.56-2.87-49.32-8-72-2-8.89,1.19-21-3-28V1c-1.73-.65-1-.2-2-1-3.1-.07-6.31-.14-8,1-2.29,2.88-1.61,5.82-3,10-4.59,13.79-8.11,28.3-13,43-12.47,37.46-23.45,77.52-36,115-4.94,14.74-7.12,38.06-15,50v2c-4-5-3.74-13.23-6-20-4.58-13.75-8.08-28.3-13-43-11.88-35.5-20.74-72.57-33-109-5-14.83-13.31-32.41-15-49-3.82,0-7.55.15-10,1q-19.5,176.48-39,353l10,1q18-163.48,36-327c4.53,5.69,4.3,15.57,7,23,7.35,20.27,11.94,41.63,19,63,9.56,28.9,17.15,59.14,27,89,2.44,7.41,13.14,30.29,11,39-4.72,19.2-12.9,40.24-19,59-4,12.31-8.52,41.49-15,50v2h79c-1.9-13.58-8-27-12-39-5.36-16.11-7.6-30.93-13-47-1.92-5.73-10.36-23.46-9-30,3.78-18.22,12.2-38.48,18-56,10-30.31,15.78-59.75,26-90,5.75-17,17.11-43.8,19-62h2q17.51,163,35,326l10-1C256.84,331.17,253.89,303,249.17,282Zm-101-3c4.1,12.4,8.89,26.64,13,39,2.61,7.85,2.58,17,7,23v2h-53c5.89-13.95,8-28.94,13-44,4.23-12.76,11.43-27.71,13-42C145.82,262.06,145.78,271.79,148.17,279Z"></path> <path class="cls-1" d="M69.17,394c-4.88,10.44-10.78,30.06-18,38v2c7.41.07,8.85-3.29,10-9,14.37-.64,15.8-1.07,20,9h6C85,426.09,73.86,399.16,69.17,394Zm5,25h-10l5-11c2.25,2.37,2.84,6.54,5,9Z"></path> <path class="cls-1" d="M30.17,420h-9v-6h16c.26,9.44-3.15,16.76-10,19-4.63,3.79-13,1.29-18,0-2.28-3.39-5.5-4.77-7-9-4.7-5.75-.53-15.68,1-21,10.16-6.84,11.46-8,26-6,2.1,2.92,4.59,3.22,6,7h-1c-1.4,2-1.35,2.07-4,3-2.85-4.46-6.45-6.09-14-6-2.77,2.63-5.81,3.69-8,7-9.48,11.29,4.19,21.58,16,21,2-2.51,3.72-2.52,5-6C29.92,422,29.77,422.09,30.17,420Z"></path> <path class="cls-1" d="M105.17,396h6v33h11v5h-17Z"></path> <path class="cls-1" d="M140.17,396h6v33h11v5h-17Z"></path> <path class="cls-1" d="M175.17,396h21v6h-15v9h15v5h-15v13h15v5h-21Z"></path> <path class="cls-1" d="M230.17,420c6.25-12.39,13.18-7,2-23l-16-1v38h6V419c4.61,3.05,8.58,9.86,11,15h8C238.41,429.65,234.4,423,230.17,420Zm-8-7V402c2.73,0,4.58,0,6,1,2.72,1,2.2,1.43,4,3-.46,4.5-1.29,4.27-3,7Z"></path> <path class="cls-1" d="M271.17,434h-6c.48-20.1-5.88-25.58-12-38h7l8,15c.8-1,.35-.27,1-2,4.75-5.33,3.69-12.82,14-13v2C275.18,406.39,271.09,417.27,271.17,434Z"></path> </g> </g> </svg> 