<?xml version="1.0" encoding="UTF-8"?> <svg xmlns="http://www.w3.org/2000/svg" viewBox="0 0 1152 955.08"> <defs> <style>.cls-1{fill:#fff;fill-rule:evenodd;}</style> </defs> <g id="Слой_2" data-name="Слой 2"> <g id="Слой_1-2" data-name="Слой 1"> <path class="cls-1" d="M484,50c-.37,2.08-.24,1.92-1,3-16.36,16.74-53.07,5.22-78,5,1.05-7.67,6.63-12.48,10-18,9.39-15.38,13.6-25.55,30-34C450.59,3.12,465-4,471,3h1l-1,1c-2.69,2.43-7,2.84-10,5-7.75,5.58-11.34,16.21-17,24l-8,8h2C447,35,474.88,48.59,484,50Z"></path> <path class="cls-1" d="M682,0c26.74.55,40.63,17.93,51,35,4.18,6.88,5.7,14.43,11,20-.63,1.75-.19,1-1,2-3.25,2.09-9.37-.08-14,1-21.85,5.09-50.56,5.94-65-7l1-1c7.27-4.9,37.48-12.49,47-9-4.86-7.67-14.77-22.78-21-29-3.68-3.67-11.53-5.33-14-10C678.3,1.53,681,.79,682,0Z"></path> <path class="cls-1" d="M511,2c9.37-.47,22.16-.18,24,7L525,20c-14.31,10.29-32.66,10.82-51,6l-1-3c6.6-5,10.68-12.44,19-16C497.68,4.57,505.92,5.36,511,2Z"></path> <path class="cls-1" d="M625,2c20.45-.62,47.7,7.81,50,24-19.59,5.39-38.3,3.64-53-7-3.72-2.69-5.77-7.76-9-11l1-1C616.87,4.39,621.74,4.35,625,2Z"></path> <path class="cls-1" d="M428,82l-1,5c-7.31,4.51-14.39,10.76-23,14-16.51,6.22-43.57,6.31-62,9a14.17,14.17,0,0,1-1-4c6-8.67,5.74-21.6,10-32,8.09-19.73,23.1-41.44,49-43a11.55,11.55,0,0,0,3,2l-1,3c-14.58,4.88-23.15,34.34-30,48h1C380.72,74.4,412.81,81.74,428,82Z"></path> <path class="cls-1" d="M722,81c17.37,1.79,39.42-5.35,55,2-2.29-5-5.92-10-8-15-3-7.12-3.22-13.93-7-20s-12.47-9.38-15-16c2.45-.85,6.18-1,10-1,6.26,4.8,14.84,6.42,21,11,14.11,10.5,17.87,28.05,24,47,1.6,5,7.84,14.57,6,19-1.29.88-2.47.89-5,1-8.81-6.46-20.35-.06-33-3-14.64-3.41-42.7-8.77-47-21C722.2,83.82,722.23,83.32,722,81Z"></path> <path class="cls-1" d="M327,82c-.87,8.17-7,13.56-9,22v31c-.92,4.1-2.11,10-3,14h1v-2c8.25-5.08,16.54-10.6,27-14l20-4c4-1.31,6.64-3.44,12-4-1.32,26.81-42.28,44.08-64,53-6.92,2.84-10.5,9.37-19,10-.69-41.57-6.81-62.86,13-90C310.29,90.76,314.91,82.44,327,82Z"></path> <path class="cls-1" d="M822,82c10.36.45,13.41,5.89,18,12,13.33,17.76,23.9,37.09,17,69-1.71,7.9.33,18.28-1,25h-4c-6.25-7.81-15-8.64-25-13a131.26,131.26,0,0,1-40-27c-6-6-14.06-13-13-23h3c6.77,5.83,19.5,4.88,29,8,10.71,3.52,18.8,9.46,27,15v-2c-5.62-8.84.73-26.07-2-38C829.24,100.29,821.36,85.54,822,82Z"></path> <path class="cls-1" d="M707,131h15V251H711c-4-17.68-15.75-32.13-25-45-24.63-34.28-54.45-56.09-103-67l-23-1c-40.14-8.48-81.94,10.95-100,29-7.26,7.26-20.44,18-16,36,8.94,36.26,49.67,38.83,87,47,12.39,2.71,27.23-.55,39,2l52,1,42,6c35.4,11.29,63.23,31.19,77,64,4.38,10.44,6.39,22.5,9,34,5,21.79-1.86,46.48-8,61-19.33,45.69-52,62.8-104,76-14.91,3.78-52.13,8-70,4-25.15-5.62-48.18-9.08-70-18-17-6.93-32.16-16.69-55-17-6.8,6.43-13.16,9.25-14,22H414V359h15c9.83,48.23,49.33,91.46,90,109,11.34,4.89,24.73,7.8,37,11,44,11.48,115.6-3.22,134-28,5.7-7.68,8.57-17,11-28,6.92-31.43-22-49-41-56-13.46-4.94-29.47-4.64-45-8-9.69-2.1-22.55.83-31-1l-41-1c-14-3.07-29.41-2.22-43-6-38.08-10.58-65.71-25.88-84-56-15.95-26.27-16.63-73.12-4-103,20.29-48,67-73,135-73,16.24,0,31.25-.48,45,3l46,12c9.32,3.82,18.94,10.07,28,14,6.64,2.88,20.23,8.54,27,4C701.41,149.87,706.77,141.2,707,131Z"></path> <path class="cls-1" d="M269,163c2.32,1.61,2.35,1.46,3,5-9.44,11.46,1.12,35.4,4,45,1.67,5.57.07,12.74,3,17v-2c7.61-7.24,13.81-15.2,23-21,8.37-5.28,19.54-7.91,25-16l1,1c2.19,1.89,2.09,3.72,2,8-2.36,3.39-2.22,7.95-4,12-3.25,7.41-9.18,15.52-14,22-11.73,15.76-30.53,25.53-43,41-1.75-.63-1-.19-2-1-4.52-5-4.26-14.23-7-21-3.29-8.12-7.57-17.67-10-27C242.6,197.62,256.33,175.24,269,163Z"></path> <path class="cls-1" d="M878,163c6.47,2.67,7.51,5.39,11,11,15,24.16,12,50.05,1,76-2.93,6.95-3.41,22.89-11,25-16.54-28-59.82-38.26-60-83l1-1h2c4.4,6.4,11.23,7.87,18,12,11.35,6.93,24.1,14.54,30,27h1c-.14-16.95,5.78-28.22,9-42C882.49,177.34,875.68,170.45,878,163Z"></path> <path class="cls-1" d="M238,257l3,1c-.7,30.33,15,42.56,24,64h1c.64-18.26,19-30,29-40,3.67-3.67,6.35-10.53,12-12v2c4.75,6,1.23,23.23-1,30-8.86,26.91-24.92,46.78-39,69h-2C250.51,345.75,204.29,295,238,257Z"></path> <path class="cls-1" d="M908,257h3c23.29,33.56,2.71,68.78-14,92-3.32,4.61-10.78,22.67-16,21-4.21-3.78-5.66-12.43-9-17-15.89-21.73-34.2-44-32-81,1.77-1,1.68-1.26,4-2v1l9,11c8.49,8.55,18,15.92,25,26,2.89,4.18,3,10.77,6,15,1.2-16.6,15.28-28.46,21-42C908.29,273.2,906.44,264.86,908,257Z"></path> <path class="cls-1" d="M301,353h3c20,31.24,6.14,69.55-2,100-1.55,5.81.8,10.53,0,15h-4c-7.17-7.2-16.11-11.4-25-17-18.56-11.69-33.59-25.88-42-48-3.47-9.13-7.53-24.54-3-36a14.17,14.17,0,0,1,4-1c5.25,11.85,9.4,21.8,19,29,9.2,6.9,24.85,14.58,29,26h1V403c2.85-4.2,2.92-10.07,5-15C290.8,376.65,295.9,365.39,301,353Z"></path> <path class="cls-1" d="M848,353c2.83,24.32,24.3,38.24,19,68h1c9.32-15.95,29.46-21.53,40-36,3.55-4.87,5.09-17.79,12-19v2c6.93,7.59,1.39,30-2,38-9.93,23.51-29.39,35-50,48-6.75,4.26-11.3,13-21,14l-1-1c-.16-28.43-17.2-51.49-11-80,2.78-12.76,0-28,10-33C846.07,353.25,846,353.4,848,353Z"></path> <path class="cls-1" d="M327,433c10.62,1.87,13.68,12.71,18,21,8.67,16.64,10.29,32.23,15,54v26c1.21,4.83,3.65,7.51,4,14h-2c-4,1.63-24.79-7.09-31-9-29.75-9.15-48.31-16.34-63-40-4.74-7.63-10-14.45-10-27a11.55,11.55,0,0,0,2-3h2c13.8,20.7,44.28,27.46,67,39-7.3-15.08-7.16-35.07-3-54C327.49,447.22,325.15,438.5,327,433Z"></path> <path class="cls-1" d="M819,433c2.39.84,1.64.4,3,2,1.11,1.85-1.19,11.07,0,16,2.79,11.55,6.57,31.09,3,44-1.23,4.45-3.81,8.51-5,13h1c9.45-11.78,38.52-15,52-24,5.92-3.95,8.38-13.3,16-15v2c5.21,8.32-4.26,21.15-7,26-13.81,24.42-34,33.31-64,42-5.47,1.59-28.79,10.3-31,9-2.87-1.12-1.84-.17-3-3,8.37-11.23,2.2-36.39,6-52C796.22,467.45,803,448.28,819,433Z"></path> <path class="cls-1" d="M327,562c8.59.91,13.75,8.5,22,11,12.45,3.77,27.21-.13,41,3l17,4v-1c-16.39-11.25-13.84-35-20-57-1.39-5-4.11-9.45-5-15a25.25,25.25,0,0,1,8-1c6.77,6.62,16.25,10.36,22,18a204.33,204.33,0,0,1,26,45c3.43,8.39,3.48,16.31,7,25,2.5,6.17,8.29,7.27,9,16h-2c-7,4.54-18.93-1.87-28,0-34.46,7.12-61.39-6.84-79-20C336.37,583.55,327,577.05,327,562Z"></path> <path class="cls-1" d="M766,506c-.23,7.24-3.36,11.89-5,18-4,14.91-3.25,29.52-9,42-2.45,5.31-7.8,9.31-11,14h2c12-8.13,36.25-1.93,52-6,10.25-2.65,18.15-10.59,26-12a14.17,14.17,0,0,1,1,4l-3,9-16,17c-27.45,20.4-61.56,19-107,19-1.12-2.09-1.43-1.83-2-5,11.32-11.1,13.15-30.29,20-46,6.26-14.36,16.25-25.46,25-37C745.08,515,752.05,506.05,766,506Z"></path> <path class="cls-1" d="M420,631c9.4.46,17.5,5.66,29,3s22-6.77,32-10l23-4c-21.94-3.42-29.93-31.86-40-48-3.21-5.14-9.09-7.52-10-15h2c6.62-4.22,27.23,5.42,32,8,23.09,12.5,40,32.19,55,53,4.31,6,13.47,9.67,15,18l-3,1c-5.52,3.9-15.6,3.28-22,6-19,8.08-49.61,22.41-79,13-14.85-4.75-24.12-11.67-34-21Z"></path> <path class="cls-1" d="M683,556h10c1,1.77,1.26,1.68,2,4-20.27,14.17-21.6,52.61-50,60v1c21.25.12,36.1,8.82,54,13,11.61,2.71,19.49-2.81,29-3l1,1c-.63,1.75-.19,1-1,2-2.69,8.57-10.51,11.13-18,15-33,17-65.61,5.9-94-6-7.18-3-16.43-4.2-24-6a14.17,14.17,0,0,1-1-4c16.36-15.22,27.07-37.53,45-51a216.12,216.12,0,0,1,31-20Z"></path> <path class="cls-1" d="M574,570c6.27,6.62,18.28,25.76,20,36l-2,9c-7.7,6.12-8.73,10.2-24,10-4.21-3.78-9.62-5.37-12-11C549.85,599.45,569.14,579.8,574,570Z"></path> <path class="cls-1" d="M569,640c8-.16,11.6,1.52,17,3,1.82,2.92,4.53,7.47,7,10,.71,14.34-11.08,33.92-19,43v-1c-2.7-3.19-3.64-7.42-6-11-7.11-10.77-14.86-18-11-35C560.75,646.48,565.3,643.06,569,640Z"></path> <path class="cls-1" d="M134,771h7v58h-7c-3.12-26.94-27-46.45-51-53-26-7.08-54.06,3.83-59,22-1.83,6.73.94,14.6,2,19,5.82,3.72,10.3,8.68,18,11,12.52,3.78,26.06-.08,40,3,30.88,6.83,54.09,9.84,65,36,3.37,8.09,5.36,22,3,32-7.6,32.11-20.75,43.82-52,52-7.42,1.94-20.59,5.31-31,3-9.14-2-19.07-2.57-27-6-9-3.91-16-10.85-28-12-2.18,2.27-3.77,2.51-5,6-1.52,1.89-1.79,3.59-2,7H0V885H7c3.44,29.7,25.47,51.77,52,59,8.14,2.22,24,1.9,32,0,27.48-6.54,44.08-13.62,35-47-5.83-3.72-10.31-8.67-18-11-12.75-3.87-25.5-.8-40-4-5.29-1.17-13.23-.46-19-2-18-4.81-35-13.39-42-29-16.88-37.44,6.59-69.72,34-80,6.49-2.43,20.35-7,30-5,10.3,2.16,21.1,2.27,30,6,9.19,3.85,17.35,10.85,29,12a11.55,11.55,0,0,1,3-2Z"></path> <path class="cls-1" d="M157,771h57v63h1c15.34-23.64,70.9-21.39,86,1,12.26,18.18,7.34,75.6,7,106h16v8H251v-8h15V865c0-15.45.24-29-11-33-9.25-8.48-25.75-.19-31,5-3.12,3.08-7.36,6.59-9,11-2.81,7.55-1,20.7-1,30v63h16v8H157v-8h15V779H157Z"></path> <path class="cls-1" d="M797,777v44h23v9H797v74c0,10.29-1.54,24,3,30,3,3.9,8.94,4.07,16,4,5.86-8.77,10-14.15,10-30h7c.27,17.73-2.64,33-13,40-13.5,9.08-48.1,8.25-57-4-11.55-15.91-7.46-84.62-7-114H740v-9c20.66.09,34-11.5,41-25l6-18C789,776.66,793.51,776.9,797,777Z"></path> <path class="cls-1" d="M392,940c-18.06-7.39-26.22-29.51-26-55h94c.12-53.46-46.39-84.75-99-61-19.37,8.74-30.56,27.08-36,50-1.65,6.94-.24,19.61,1,25,6.21,27,17.2,42.27,41,51,43.91,16.11,93.43-8.33,93-51h-7C452.91,925.87,422.13,952.34,392,940Zm-1-114c2.94-2.16,9.83-2.32,13,0,17.27,2.92,19.65,29.82,19,51H367C366.81,854.81,373.93,830.67,391,826Z"></path> <path class="cls-1" d="M522,941h16v8H465v-8h15V830H465v-9h57v13h1c5.89-9.37,16.56-14.12,29-17,21.06-4.88,43.71,17,35,37-2.21,5.08-7.32,7.37-11,11-5.35.54-11,2-15-1-6-1.88-7.16-6.15-11-10-.54-5.35-2-11,1-15,3.11-9.8,10.26-8,18-13C514.09,814.63,521.56,889.7,522,941Z"></path> <path class="cls-1" d="M744,908h-7c0,13.59-2,22.16-7,30-5.58-.06-9.82.33-12-3-4.38-6.7-2-24-2-34,0-26.24,2-53.89-9-69-7.28-10-41.39-19.71-63-15-28.69,6.26-48.65,8.65-47,43,4.22,4.51,4.85,9.11,12,11,3.43,2.4,12.61,1,15-1,9.12-3,11-12.43,10-23-5-5.39-6-11.3-16-12l1-1c7.66-9.85,34.14-10.26,45-3,8.49,5.67,9.92,16.38,9,29-5.1,5.23-7.59,10.89-15,14-26.62,11.16-61.38,5-69,35-13.3,52.3,68.22,55.94,87,24,5.74,7.49,7.67,15.07,17,19,5.79,2.44,15.65,2.36,22,1C739.81,947.68,744.7,937.67,744,908Zm-85,31c-4.13,2.26-12.06,5-17,1-10.61-3.35-15.51-24.06-10-37,6.56-15.4,29-15.11,39-27,2.68,4,1,16,1,22C672,919.72,673,931.35,659,939Z"></path> <path class="cls-1" d="M979,868c-2-7.83-5-16.55-9-23-12.53-20.17-36.44-28.52-70-28l-18,4c-16.38,6.53-31.2,19-38,35-25,58.83,26.08,112.7,87,96C961.15,943.73,990.76,913.3,979,868Zm-41,33c-4.3,20.8-2.38,35.93-20,43-2.93,1.18-9.5,3.5-15,2-27.15-7.42-30.09-83.64-15-109,6.36-10.69,11.72-7.35,21-13,6.13,2,11.68,2.41,16,6C936,839.19,942.51,879.18,938,901Z"></path> <path class="cls-1" d="M1136,941h16v8h-73v-8h15V865c0-15.54.33-29-11-33-9.27-8.5-25.71-.13-31,5-3.14,3-7.37,6.61-9,11-2.81,7.55-1,20.7-1,30v63h16v8H985v-8h15l1-1V830H985v-9h57v13h1c16.84-26,73.84-19.81,88,4C1140.12,853.33,1136.29,915.22,1136,941Z"></path> </g> </g> </svg> 